<?xml version="1.0" encoding="utf-8"?>
<!-- Generator: Adobe Illustrator 16.0.0, SVG Export Plug-In . SVG Version: 6.00 Build 0)  -->
<!DOCTYPE svg PUBLIC "-//W3C//DTD SVG 1.1//EN" "http://www.w3.org/Graphics/SVG/1.1/DTD/svg11.dtd">
<svg version="1.1" id="Layer_1" xmlns="http://www.w3.org/2000/svg" xmlns:xlink="http://www.w3.org/1999/xlink" x="0px" y="0px"
	 width="296.156px" height="26.968px" viewBox="0 0 296.156 26.968" enable-background="new 0 0 296.156 26.968"
	 xml:space="preserve">
<g id="Layer_1_1_">
	<g>
		<g>
			<path fill="#00B1DD" d="M3.729,9.032C2.341,10.5,0,11.35,0,13.547c0,2.113,2.413,2.958,3.687,4.309
				c1.142,1.206,5.347,9.112,14.669,9.112c0.625,0,1.226-0.041,1.81-0.113L10.929,1.856C6.968,4.089,4.986,7.702,3.729,9.032z
				 M32.943,8.949C32.197,7.872,27.432,0,18.315,0C17.682,0,17.08,0.036,16.5,0.099l9.204,24.912
				c3.987-2.256,6.362-5.812,7.239-7.073c0.887-1.274,3.729-2.36,3.729-4.475C36.671,11.435,33.689,10.026,32.943,8.949z"/>
		</g>
	</g>
</g>
<g id="Layer_2">
	<path fill="#231F20" d="M61.265,1.179H42.457c-0.248,0-0.449,0.202-0.449,0.449v4.426c0,0.248,0.202,0.449,0.449,0.449l6.459-0.001
		v19.067c0,0.248,0.202,0.45,0.449,0.45l5.029-0.001c0.248,0,0.449-0.201,0.449-0.449V6.502l6.421,0.001
		c0.248,0,0.449-0.201,0.449-0.449V1.628C61.714,1.381,61.513,1.179,61.265,1.179z"/>
	<path fill="#231F20" d="M241.836,1.141h-4.27c-1.246,0-1.435,0.831-1.698,1.284l-5.21,9.287l-5.172-9.287
		c-0.303-0.453-0.453-1.284-1.736-1.284h-4.383c-0.248,0-0.449,0.202-0.449,0.449v23.979c0,0.248,0.201,0.449,0.449,0.449h5.027
		c0.248,0,0.449-0.201,0.449-0.449V12.127l3.813,6.606c0.188,0.304,0.489,0.793,1.057,0.793h1.888c0.565,0,0.905-0.489,1.096-0.793
		l3.775-6.606v13.442c0,0.248,0.2,0.449,0.448,0.449c0,0,0.642,0.001,0.646,0.001l4.27-0.001c0.248,0,0.449-0.201,0.449-0.449V1.59
		C242.285,1.343,242.084,1.141,241.836,1.141z"/>
	<path fill="#231F20" d="M295.707,1.179h-4.916c-0.248,0-0.449,0.201-0.449,0.448v13.748l-8.004-12.913
		c-0.49-0.755-0.754-1.283-1.697-1.283h-4.195c-0.246,0-0.448,0.201-0.448,0.448v23.942c0,0.248,0.202,0.449,0.448,0.449h5.029
		c0.248,0,0.449-0.201,0.449-0.449V11.787l8.003,12.948c0.491,0.757,0.755,1.284,1.698,1.284l4.082-0.001
		c0.247,0,0.449-0.201,0.449-0.449V1.627C296.156,1.38,295.954,1.179,295.707,1.179z"/>
	<path fill="#231F20" d="M186.947,20.733H175.43V1.628c0-0.248-0.201-0.449-0.449-0.449h-5.028c-0.247,0-0.449,0.202-0.449,0.449
		v10.803l5.021,13.588l12.426-0.001c0.248,0,0.449-0.201,0.449-0.449v-4.387C187.396,20.936,187.195,20.733,186.947,20.733z"/>
	<path fill="#231F20" d="M85.383,20.734H73.341v-4.982h10.117c0.868,0,1.095-0.416,1.095-1.094v-2.947
		c0-0.679-0.227-1.094-1.095-1.094H73.341V6.502h11.4c0.869,0,1.095-0.415,1.095-1.095V2.274c0-0.68-0.227-1.095-1.095-1.095H67.825
		c-0.248,0-0.449,0.202-0.449,0.449v23.941c0,0.248,0.201,0.45,0.449,0.45h17.559c0.868,0,1.095-0.415,1.095-1.096v-3.096
		C86.478,21.149,86.251,20.734,85.383,20.734z"/>
	<path fill="#231F20" d="M107.958,17.074c2.34-0.795,5.247-3.55,5.247-7.514c0-2.416-0.792-4.568-2.189-5.927
		c-1.585-1.586-3.397-2.417-7.512-2.417H93.39c-0.248,0-0.449,0.202-0.449,0.449l-0.007,23.903c0,0.248,0.202,0.45,0.449,0.45
		l4.991-0.001c0.248,0,0.449-0.201,0.449-0.449V6.502h5.021c1.963,0,3.473,1.246,3.473,3.209c0,1.774-1.736,3.058-3.586,3.058
		h-0.755c-0.868,0-1.095,0.416-1.095,1.095v3.02c0,1.057,0.075,1.473,0.416,1.926l4.077,6.077c0.529,0.794,0.981,1.133,1.888,1.133
		h4.455c0.717,0,0.906-0.681,0.566-1.208L107.958,17.074z"/>
	<path fill="#231F20" d="M134.527,17.074c2.34-0.795,5.248-3.55,5.248-7.514c0-2.416-0.792-4.568-2.189-5.927
		c-1.586-1.586-3.397-2.417-7.513-2.417h-10.121c-0.248,0-0.449,0.202-0.449,0.449v23.904c0,0.248,0.201,0.45,0.449,0.45
		l4.991-0.001c0.248,0,0.449-0.201,0.449-0.449V6.502h5.021c1.963,0,3.473,1.246,3.473,3.209c0,1.774-1.737,3.058-3.586,3.058
		h-0.755c-0.869,0-1.095,0.416-1.095,1.095v3.02c0,1.057,0.075,1.473,0.415,1.926l4.077,6.077c0.528,0.794,0.981,1.133,1.888,1.133
		h4.454c0.718,0,0.907-0.681,0.566-1.208L134.527,17.074z"/>
	<path fill="#231F20" d="M159.096,2.35c-0.341-0.793-0.719-1.17-1.549-1.17h-3.624c-0.83,0-1.245,0.377-1.548,1.17l-8.381,22.612
		c-0.188,0.453-0.188,1.058,0.642,1.058h3.963c0.83,0,1.133-0.228,1.436-1.133l1.057-2.981h9.249l1.058,2.981
		c0.302,0.905,0.604,1.133,1.435,1.133h3.965c0.83,0,0.83-0.604,0.642-1.058L159.096,2.35z M152.904,16.619l2.83-8.343l2.832,8.343
		H152.904z"/>
	<path fill="#231F20" d="M210.908,20.733h-12.043v-4.981h10.117c0.867,0,1.094-0.416,1.094-1.096v-2.945
		c0-0.679-0.227-1.094-1.094-1.094h-10.117V6.502h11.4c0.867,0,1.094-0.415,1.094-1.095V2.274c0-0.68-0.227-1.095-1.094-1.095
		H193.35c-0.248,0-0.449,0.202-0.449,0.449v23.941c0,0.248,0.201,0.449,0.449,0.449l17.56,0.001c0.866,0,1.094-0.415,1.094-1.096
		v-3.096C212.002,21.149,211.775,20.733,210.908,20.733z"/>
	<path fill="#231F20" d="M259.123,0.613c-4.493,0-10.08,2.567-10.08,8.532v8.909c0,5.965,5.587,8.531,10.08,8.531
		c4.492,0,10.154-2.566,10.154-8.531V9.145C269.277,3.18,263.615,0.613,259.123,0.613z M263.35,17.525
		c0,2.416-1.735,3.812-4.227,3.812c-2.455,0-4.191-1.396-4.191-3.812V9.673c0-2.417,1.736-3.813,4.191-3.813
		c2.49,0,4.227,1.397,4.227,3.813V17.525z"/>
</g>
</svg>
